<?xml version="1.0" encoding="UTF-8" standalone="no"?>
<!DOCTYPE svg PUBLIC "-//W3C//DTD SVG 1.1//EN"
 "http://www.w3.org/Graphics/SVG/1.1/DTD/svg11.dtd">
<!-- Generated by graphviz version 2.44.1 (20200629.0846)
 -->
<!-- Title: call&#45;graph&#45;example Pages: 1 -->
<svg width="578px" height="500px"
 viewBox="0.00 0.00 562.00 486.40" xmlns="http://www.w3.org/2000/svg" xmlns:xlink="http://www.w3.org/1999/xlink">
<g id="graph0" class="graph" transform="scale(1.0 1.0) rotate(0.0) translate(4.0 482.4)">
<title>call&#45;graph&#45;example</title>
<polygon fill="white" stroke="transparent" points="-4,4 -4,-482.4 558,-482.4 558,4 -4,4"/>
<g id="clust1" class="cluster">
<title>cluster_TaskAllocationController</title>
<polygon fill="none" stroke="black" points="61,-393.6 61,-470.4 331,-470.4 331,-393.6 61,-393.6"/>
<text text-anchor="middle" x="196" y="-453.8" font-family="Times,serif" font-size="14.00">TaskAllocationController</text>
</g>
<g id="clust2" class="cluster">
<title>cluster_TaskAllocationServiceImpl</title>
<polygon fill="none" stroke="black" points="8,-92.8 8,-385.6 546,-385.6 546,-92.8 8,-92.8"/>
<text text-anchor="middle" x="277" y="-369" font-family="Times,serif" font-size="14.00">TaskAllocationServiceImpl</text>
</g>
<g id="clust3" class="cluster">
<title>cluster_MetricsServiceImpl</title>
<polygon fill="none" stroke="black" points="221,-8 221,-84.8 437,-84.8 437,-8 221,-8"/>
<text text-anchor="middle" x="329" y="-68.2" font-family="Times,serif" font-size="14.00">MetricsServiceImpl</text>
</g>
<!-- getUserTasks -->
<g id="node1" class="node">
<title>getUserTasks</title>
<polygon fill="#b7c9e3" stroke="black" points="323.19,-437.6 230.81,-437.6 230.81,-401.6 323.19,-401.6 323.19,-437.6"/>
<text text-anchor="middle" x="277" y="-415.4" font-family="Times,serif" font-size="14.00">getUserTasks</text>
</g>
<!-- getUserTaskUnitsByProjectId -->
<g id="node5" class="node">
<title>getUserTaskUnitsByProjectId</title>
<polygon fill="#b7c9e3" stroke="black" points="538.23,-352.8 353.77,-352.8 353.77,-316.8 538.23,-316.8 538.23,-352.8"/>
<text text-anchor="middle" x="446" y="-330.6" font-family="Times,serif" font-size="14.00">getUserTaskUnitsByProjectId</text>
</g>
<!-- getUserTasks&#45;&gt;getUserTaskUnitsByProjectId -->
<g id="edge3" class="edge">
<title>getUserTasks&#45;&gt;getUserTaskUnitsByProjectId</title>
<path fill="none" stroke="black" d="M312.31,-401.51C322.84,-396.41 334.39,-390.79 345,-385.6 363.84,-376.38 384.63,-366.14 402.43,-357.36"/>
<polygon fill="black" stroke="black" points="404.02,-360.48 411.44,-352.91 400.92,-354.2 404.02,-360.48"/>
</g>
<!-- getUserTaskUnits -->
<g id="node6" class="node">
<title>getUserTaskUnits</title>
<polygon fill="#b7c9e3" stroke="black" points="335.58,-352.8 218.42,-352.8 218.42,-316.8 335.58,-316.8 335.58,-352.8"/>
<text text-anchor="middle" x="277" y="-330.6" font-family="Times,serif" font-size="14.00">getUserTaskUnits</text>
</g>
<!-- getUserTasks&#45;&gt;getUserTaskUnits -->
<g id="edge2" class="edge">
<title>getUserTasks&#45;&gt;getUserTaskUnits</title>
<path fill="none" stroke="black" d="M277,-401.44C277,-390.34 277,-375.65 277,-362.98"/>
<polygon fill="black" stroke="black" points="280.5,-362.93 277,-352.93 273.5,-362.93 280.5,-362.93"/>
</g>
<!-- getUserAssignedTasks -->
<g id="node2" class="node">
<title>getUserAssignedTasks</title>
<polygon fill="#b7c9e3" stroke="black" points="213.29,-437.6 68.71,-437.6 68.71,-401.6 213.29,-401.6 213.29,-437.6"/>
<text text-anchor="middle" x="141" y="-415.4" font-family="Times,serif" font-size="14.00">getUserAssignedTasks</text>
</g>
<!-- getAssignedTaskUnitsToUser -->
<g id="node7" class="node">
<title>getAssignedTaskUnitsToUser</title>
<polygon fill="#b7c9e3" stroke="black" points="200.23,-352.8 15.77,-352.8 15.77,-316.8 200.23,-316.8 200.23,-352.8"/>
<text text-anchor="middle" x="108" y="-330.6" font-family="Times,serif" font-size="14.00">getAssignedTaskUnitsToUser</text>
</g>
<!-- getUserAssignedTasks&#45;&gt;getAssignedTaskUnitsToUser -->
<g id="edge1" class="edge">
<title>getUserAssignedTasks&#45;&gt;getAssignedTaskUnitsToUser</title>
<path fill="none" stroke="black" d="M134.16,-401.44C129.69,-390.23 123.76,-375.35 118.68,-362.6"/>
<polygon fill="black" stroke="black" points="121.78,-360.93 114.83,-352.93 115.28,-363.52 121.78,-360.93"/>
</g>
<!-- getTasksForUserInProject -->
<g id="node3" class="node">
<title>getTasksForUserInProject</title>
<polygon fill="#b7c9e3" stroke="black" points="410.45,-208.8 247.55,-208.8 247.55,-172.8 410.45,-172.8 410.45,-208.8"/>
<text text-anchor="middle" x="329" y="-186.6" font-family="Times,serif" font-size="14.00">getTasksForUserInProject</text>
</g>
<!-- getUserSuperRatingTaskUnits -->
<g id="node8" class="node">
<title>getUserSuperRatingTaskUnits</title>
<polygon fill="#b7c9e3" stroke="black" points="422.57,-136.8 235.43,-136.8 235.43,-100.8 422.57,-100.8 422.57,-136.8"/>
<text text-anchor="middle" x="329" y="-114.6" font-family="Times,serif" font-size="14.00">getUserSuperRatingTaskUnits</text>
</g>
<!-- getTasksForUserInProject&#45;&gt;getUserSuperRatingTaskUnits -->
<g id="edge8" class="edge">
<title>getTasksForUserInProject&#45;&gt;getUserSuperRatingTaskUnits</title>
<path fill="none" stroke="black" d="M329,-172.5C329,-164.78 329,-155.51 329,-146.91"/>
<polygon fill="black" stroke="black" points="332.5,-146.9 329,-136.9 325.5,-146.9 332.5,-146.9"/>
</g>
<!-- createProjectSurveySkillAttribute -->
<g id="node4" class="node">
<title>createProjectSurveySkillAttribute</title>
<polygon fill="#b7c9e3" stroke="black" points="537.72,-280.8 332.28,-280.8 332.28,-244.8 537.72,-244.8 537.72,-280.8"/>
<text text-anchor="middle" x="435" y="-258.6" font-family="Times,serif" font-size="14.00">createProjectSurveySkillAttribute</text>
</g>
<!-- createProjectSurveySkillAttribute&#45;&gt;getTasksForUserInProject -->
<g id="edge6" class="edge">
<title>createProjectSurveySkillAttribute&#45;&gt;getTasksForUserInProject</title>
<path fill="none" stroke="black" d="M409.07,-244.68C395.34,-235.61 378.29,-224.35 363.46,-214.56"/>
<polygon fill="black" stroke="black" points="365.3,-211.58 355.03,-208.99 361.45,-217.42 365.3,-211.58"/>
</g>
<!-- getUserTaskUnitsByProjectId&#45;&gt;createProjectSurveySkillAttribute -->
<g id="edge4" class="edge">
<title>getUserTaskUnitsByProjectId&#45;&gt;createProjectSurveySkillAttribute</title>
<path fill="none" stroke="black" d="M443.28,-316.5C442.07,-308.78 440.61,-299.51 439.26,-290.91"/>
<polygon fill="black" stroke="black" points="442.7,-290.24 437.69,-280.9 435.78,-291.33 442.7,-290.24"/>
</g>
<!-- getUserNewProjectTaskUnits -->
<g id="node9" class="node">
<title>getUserNewProjectTaskUnits</title>
<polygon fill="#b7c9e3" stroke="black" points="314.66,-280.8 131.34,-280.8 131.34,-244.8 314.66,-244.8 314.66,-280.8"/>
<text text-anchor="middle" x="223" y="-258.6" font-family="Times,serif" font-size="14.00">getUserNewProjectTaskUnits</text>
</g>
<!-- getUserTaskUnits&#45;&gt;getUserNewProjectTaskUnits -->
<g id="edge5" class="edge">
<title>getUserTaskUnits&#45;&gt;getUserNewProjectTaskUnits</title>
<path fill="none" stroke="black" d="M263.65,-316.5C257.24,-308.19 249.44,-298.08 242.39,-288.94"/>
<polygon fill="black" stroke="black" points="245.07,-286.68 236.19,-280.9 239.53,-290.96 245.07,-286.68"/>
</g>
<!-- updateMetricsSuperRatingStatus -->
<g id="node10" class="node">
<title>updateMetricsSuperRatingStatus</title>
<polygon fill="#b7c9e3" stroke="black" points="429.29,-52 228.71,-52 228.71,-16 429.29,-16 429.29,-52"/>
<text text-anchor="middle" x="329" y="-29.8" font-family="Times,serif" font-size="14.00">updateMetricsSuperRatingStatus</text>
</g>
<!-- getUserSuperRatingTaskUnits&#45;&gt;updateMetricsSuperRatingStatus -->
<g id="edge9" class="edge">
<title>getUserSuperRatingTaskUnits&#45;&gt;updateMetricsSuperRatingStatus</title>
<path fill="none" stroke="black" d="M329,-100.64C329,-89.54 329,-74.85 329,-62.18"/>
<polygon fill="black" stroke="black" points="332.5,-62.13 329,-52.13 325.5,-62.13 332.5,-62.13"/>
</g>
<!-- getUserNewProjectTaskUnits&#45;&gt;getTasksForUserInProject -->
<g id="edge7" class="edge">
<title>getUserNewProjectTaskUnits&#45;&gt;getTasksForUserInProject</title>
<path fill="none" stroke="black" d="M248.93,-244.68C262.66,-235.61 279.71,-224.35 294.54,-214.56"/>
<polygon fill="black" stroke="black" points="296.55,-217.42 302.97,-208.99 292.7,-211.58 296.55,-217.42"/>
</g>
</g>
</svg>
