<?xml version="1.0" encoding="UTF-8" standalone="no"?>
<!DOCTYPE svg PUBLIC "-//W3C//DTD SVG 1.1//EN"
        "http://www.w3.org/Graphics/SVG/1.1/DTD/svg11.dtd">
<!-- Generated by graphviz version 2.44.1 (20200629.0846)
 -->
<!-- Title: laminar Pages: 1 -->
<svg width="426px" height="500px"
     viewBox="0.00 0.00 460.00 540.00" xmlns="http://www.w3.org/2000/svg" xmlns:xlink="http://www.w3.org/1999/xlink">
    <g id="graph0" class="graph" transform="scale(1.0 1.0) rotate(0.0) translate(4.0 536.0)">
        <title>laminar</title>
        <polygon fill="white" stroke="transparent" points="-4,4 -4,-536 456,-536 456,4 -4,4"/>
        <!-- BaseObservable -->
        <g id="node1" class="node">
            <title>BaseObservable</title>
            <polygon fill="#b7c9e3" stroke="black" points="178,-380 72,-380 72,-308 178,-308 178,-380"/>
            <text text-anchor="start" x="79.52" y="-364.4" font-family="Times,serif" font-weight="bold" font-size="14.00">BaseObservable</text>
            <text text-anchor="start" x="112.95" y="-347.4" font-family="Times,serif" font-size="14.00">map</text>
            <text text-anchor="start" x="105.17" y="-331.4" font-family="Times,serif" font-size="14.00">mapTo</text>
            <text text-anchor="start" x="102.84" y="-315.4" font-family="Times,serif" font-size="14.00">flatMap</text>
        </g>
        <!-- Source -->
        <g id="node2" class="node">
            <title>Source</title>
            <polygon fill="#b7c9e3" stroke="black" points="189,-532 99,-532 99,-492 189,-492 189,-532"/>
            <text text-anchor="start" x="124.56" y="-516.4" font-family="Times,serif" font-weight="bold" font-size="14.00">Source</text>
            <text text-anchor="start" x="106.68" y="-499.4" font-family="Times,serif" font-size="14.00">toObservable</text>
        </g>
        <!-- BaseObservable&#45;&gt;Source -->
        <g id="edge2" class="edge">
            <title>BaseObservable&#45;&gt;Source</title>
            <path fill="none" stroke="black" d="M129.03,-380.2C132.49,-410.42 137.41,-453.44 140.66,-481.78"/>
            <polygon fill="none" stroke="black" points="137.2,-482.33 141.81,-491.87 144.15,-481.53 137.2,-482.33"/>
        </g>
        <!-- Named -->
        <g id="node3" class="node">
            <title>Named</title>
            <polygon fill="#b7c9e3" stroke="black" points="271,-456 193,-456 193,-416 271,-416 271,-456"/>
            <text text-anchor="start" x="211.79" y="-440.4" font-family="Times,serif" font-weight="bold" font-size="14.00">Named</text>
            <text text-anchor="start" x="200.9" y="-423.4" font-family="Times,serif" font-size="14.00">toObserver</text>
        </g>
        <!-- BaseObservable&#45;&gt;Named -->
        <g id="edge1" class="edge">
            <title>BaseObservable&#45;&gt;Named</title>
            <path fill="none" stroke="black" d="M166.68,-380.05C178.18,-389.73 190.45,-400.05 201.21,-409.1"/>
            <polygon fill="none" stroke="black" points="199.21,-411.99 209.11,-415.75 203.71,-406.63 199.21,-411.99"/>
        </g>
        <!-- EventSource -->
        <g id="node4" class="node">
            <title>EventSource</title>
            <polygon fill="#b7c9e3" stroke="black" points="115.5,-454 28.5,-454 28.5,-418 115.5,-418 115.5,-454"/>
            <text text-anchor="start" x="36.73" y="-432.4" font-family="Times,serif" font-weight="bold" font-size="14.00">EventSource</text>
        </g>
        <!-- EventSource&#45;&gt;Source -->
        <g id="edge3" class="edge">
            <title>EventSource&#45;&gt;Source</title>
            <path fill="none" stroke="black" d="M88.7,-454.16C97.44,-463.15 108.33,-474.34 118.14,-484.42"/>
            <polygon fill="none" stroke="black" points="115.88,-487.12 125.36,-491.85 120.9,-482.24 115.88,-487.12"/>
        </g>
        <!-- SignalSource -->
        <g id="node5" class="node">
            <title>SignalSource</title>
            <polygon fill="#b7c9e3" stroke="black" points="452,-454 362,-454 362,-418 452,-418 452,-454"/>
            <text text-anchor="start" x="369.67" y="-432.4" font-family="Times,serif" font-weight="bold" font-size="14.00">SignalSource</text>
        </g>
        <!-- SignalSource&#45;&gt;Source -->
        <g id="edge4" class="edge">
            <title>SignalSource&#45;&gt;Source</title>
            <path fill="none" stroke="black" d="M361.72,-453.23C358.77,-454.19 355.85,-455.13 353,-456 301.2,-471.9 241.33,-487.37 198.98,-497.83"/>
            <polygon fill="none" stroke="black" points="198.02,-494.46 189.14,-500.24 199.69,-501.25 198.02,-494.46"/>
        </g>
        <!-- Observer -->
        <g id="node6" class="node">
            <title>Observer</title>
            <polygon fill="#b7c9e3" stroke="black" points="351.5,-362 284.5,-362 284.5,-326 351.5,-326 351.5,-362"/>
            <text text-anchor="start" x="292.85" y="-340.4" font-family="Times,serif" font-weight="bold" font-size="14.00">Observer</text>
        </g>
        <!-- Observer&#45;&gt;Named -->
        <g id="edge6" class="edge">
            <title>Observer&#45;&gt;Named</title>
            <path fill="none" stroke="black" d="M301.42,-362.35C288.95,-375.4 271.64,-393.52 257.43,-408.39"/>
            <polygon fill="none" stroke="black" points="254.7,-406.18 250.32,-415.83 259.76,-411.02 254.7,-406.18"/>
        </g>
        <!-- Sink -->
        <g id="node7" class="node">
            <title>Sink</title>
            <polygon fill="#b7c9e3" stroke="black" points="344,-454 290,-454 290,-418 344,-418 344,-454"/>
            <text text-anchor="start" x="304.66" y="-432.4" font-family="Times,serif" font-weight="bold" font-size="14.00">Sink</text>
        </g>
        <!-- Observer&#45;&gt;Sink -->
        <g id="edge5" class="edge">
            <title>Observer&#45;&gt;Sink</title>
            <path fill="none" stroke="black" d="M317.81,-362.35C317.66,-375.18 317.47,-392.89 317.3,-407.62"/>
            <polygon fill="none" stroke="black" points="313.8,-407.66 317.19,-417.7 320.8,-407.74 313.8,-407.66"/>
        </g>
        <!-- Observable -->
        <g id="node8" class="node">
            <title>Observable</title>
            <polygon fill="#b7c9e3" stroke="black" points="199.5,-272 120.5,-272 120.5,-236 199.5,-236 199.5,-272"/>
            <text text-anchor="start" x="128.63" y="-250.4" font-family="Times,serif" font-weight="bold" font-size="14.00">Observable</text>
        </g>
        <!-- Observable&#45;&gt;BaseObservable -->
        <g id="edge7" class="edge">
            <title>Observable&#45;&gt;BaseObservable</title>
            <path fill="none" stroke="black" d="M153.09,-272.39C150.1,-279.9 146.45,-289.06 142.79,-298.27"/>
            <polygon fill="none" stroke="black" points="139.44,-297.23 138.99,-307.81 145.94,-299.82 139.44,-297.23"/>
        </g>
        <!-- EventBus -->
        <g id="node9" class="node">
            <title>EventBus</title>
            <polygon fill="#b7c9e3" stroke="black" points="266,-362 196,-362 196,-326 266,-326 266,-362"/>
            <text text-anchor="start" x="203.78" y="-340.4" font-family="Times,serif" font-weight="bold" font-size="14.00">EventBus</text>
        </g>
        <!-- EventBus&#45;&gt;Named -->
        <g id="edge9" class="edge">
            <title>EventBus&#45;&gt;Named</title>
            <path fill="none" stroke="black" d="M231.19,-362.35C231.33,-374.56 231.51,-391.21 231.67,-405.49"/>
            <polygon fill="none" stroke="black" points="228.18,-405.87 231.79,-415.83 235.18,-405.79 228.18,-405.87"/>
        </g>
        <!-- EventBus&#45;&gt;EventSource -->
        <g id="edge10" class="edge">
            <title>EventBus&#45;&gt;EventSource</title>
            <path fill="none" stroke="black" d="M211.55,-362.03C204.14,-368.09 195.44,-374.72 187,-380 166.74,-392.67 143.12,-404.44 122.57,-413.81"/>
            <polygon fill="none" stroke="black" points="121.06,-410.65 113.37,-417.94 123.92,-417.04 121.06,-410.65"/>
        </g>
        <!-- EventBus&#45;&gt;Sink -->
        <g id="edge8" class="edge">
            <title>EventBus&#45;&gt;Sink</title>
            <path fill="none" stroke="black" d="M247.58,-362.35C260.55,-375.92 278.75,-394.97 293.26,-410.16"/>
            <polygon fill="none" stroke="black" points="291.03,-412.89 300.47,-417.7 296.09,-408.05 291.03,-412.89"/>
        </g>
        <!-- Var -->
        <g id="node10" class="node">
            <title>Var</title>
            <polygon fill="#b7c9e3" stroke="black" points="424,-362 370,-362 370,-326 424,-326 424,-362"/>
            <text text-anchor="start" x="386.51" y="-340.4" font-family="Times,serif" font-weight="bold" font-size="14.00">Var</text>
        </g>
        <!-- Var&#45;&gt;Named -->
        <g id="edge12" class="edge">
            <title>Var&#45;&gt;Named</title>
            <path fill="none" stroke="black" d="M381.98,-362.05C375.9,-368.26 368.55,-374.98 361,-380 353.74,-384.83 314.16,-401.5 280.73,-415.23"/>
            <polygon fill="none" stroke="black" points="278.98,-412.17 271.05,-419.2 281.63,-418.64 278.98,-412.17"/>
        </g>
        <!-- Var&#45;&gt;SignalSource -->
        <g id="edge13" class="edge">
            <title>Var&#45;&gt;SignalSource</title>
            <path fill="none" stroke="black" d="M398.93,-362.35C400.35,-375.18 402.32,-392.89 403.96,-407.62"/>
            <polygon fill="none" stroke="black" points="400.49,-408.15 405.08,-417.7 407.45,-407.37 400.49,-408.15"/>
        </g>
        <!-- Var&#45;&gt;Sink -->
        <g id="edge11" class="edge">
            <title>Var&#45;&gt;Sink</title>
            <path fill="none" stroke="black" d="M381.58,-362.35C369.51,-375.92 352.58,-394.97 339.08,-410.16"/>
            <polygon fill="none" stroke="black" points="336.41,-407.9 332.38,-417.7 341.64,-412.55 336.41,-407.9"/>
        </g>
        <!-- WriteBus -->
        <g id="node11" class="node">
            <title>WriteBus</title>
            <polygon fill="#b7c9e3" stroke="black" points="352.5,-272 283.5,-272 283.5,-236 352.5,-236 352.5,-272"/>
            <text text-anchor="start" x="291.67" y="-250.4" font-family="Times,serif" font-weight="bold" font-size="14.00">WriteBus</text>
        </g>
        <!-- WriteBus&#45;&gt;Observer -->
        <g id="edge14" class="edge">
            <title>WriteBus&#45;&gt;Observer</title>
            <path fill="none" stroke="black" d="M318,-272.39C318,-284.76 318,-301.63 318,-315.78"/>
            <polygon fill="none" stroke="black" points="314.5,-315.95 318,-325.95 321.5,-315.95 314.5,-315.95"/>
        </g>
        <!-- WritableObservable -->
        <g id="node12" class="node">
            <title>WritableObservable</title>
            <polygon fill="#b7c9e3" stroke="black" points="234,-190 106,-190 106,-154 234,-154 234,-190"/>
            <text text-anchor="start" x="113.64" y="-168.4" font-family="Times,serif" font-weight="bold" font-size="14.00">WritableObservable</text>
        </g>
        <!-- WritableObservable&#45;&gt;Observable -->
        <g id="edge15" class="edge">
            <title>WritableObservable&#45;&gt;Observable</title>
            <path fill="none" stroke="black" d="M167.83,-190.36C166.54,-200.7 164.87,-214.06 163.4,-225.78"/>
            <polygon fill="none" stroke="black" points="159.9,-225.59 162.13,-235.95 166.84,-226.46 159.9,-225.59"/>
        </g>
        <!-- EventStream -->
        <g id="node13" class="node">
            <title>EventStream</title>
            <polygon fill="#b7c9e3" stroke="black" points="88,-200 0,-200 0,-144 88,-144 88,-200"/>
            <text text-anchor="start" x="7.84" y="-184.4" font-family="Times,serif" font-weight="bold" font-size="14.00">EventStream</text>
            <text text-anchor="start" x="30.4" y="-167.4" font-family="Times,serif" font-size="14.00">filter</text>
            <text text-anchor="start" x="28.84" y="-151.4" font-family="Times,serif" font-size="14.00">delay</text>
        </g>
        <!-- EventStream&#45;&gt;BaseObservable -->
        <g id="edge17" class="edge">
            <title>EventStream&#45;&gt;BaseObservable</title>
            <path fill="none" stroke="black" d="M57.01,-200.31C69.62,-226.77 88.95,-267.33 103.78,-298.46"/>
            <polygon fill="none" stroke="black" points="100.76,-300.27 108.22,-307.79 107.08,-297.26 100.76,-300.27"/>
        </g>
        <!-- EventStream&#45;&gt;EventSource -->
        <g id="edge16" class="edge">
            <title>EventStream&#45;&gt;EventSource</title>
            <path fill="none" stroke="black" d="M45.88,-200.19C48.76,-239.83 54.8,-315.74 63,-380 64.15,-389.01 65.66,-398.8 67.12,-407.6"/>
            <polygon fill="none" stroke="black" points="63.72,-408.44 68.85,-417.71 70.62,-407.26 63.72,-408.44"/>
        </g>
        <!-- EventStream&#45;&gt;Observable -->
        <g id="edge18" class="edge">
            <title>EventStream&#45;&gt;Observable</title>
            <path fill="none" stroke="black" d="M83.27,-200.08C97.4,-209.83 113.19,-220.71 126.75,-230.07"/>
            <polygon fill="none" stroke="black" points="125.08,-233.17 135.3,-235.97 129.06,-227.41 125.08,-233.17"/>
        </g>
        <!-- Signal -->
        <g id="node14" class="node">
            <title>Signal</title>
            <polygon fill="#b7c9e3" stroke="black" points="317.5,-200 252.5,-200 252.5,-144 317.5,-144 317.5,-200"/>
            <text text-anchor="start" x="267.61" y="-184.4" font-family="Times,serif" font-weight="bold" font-size="14.00">Signal</text>
            <text text-anchor="start" x="273.45" y="-167.4" font-family="Times,serif" font-size="14.00">now</text>
            <text text-anchor="start" x="260.62" y="-151.4" font-family="Times,serif" font-size="14.00">compose</text>
        </g>
        <!-- Signal&#45;&gt;BaseObservable -->
        <g id="edge20" class="edge">
            <title>Signal&#45;&gt;BaseObservable</title>
            <path fill="none" stroke="black" d="M266.46,-200.3C251.89,-220.92 230.54,-249.42 209,-272 199.45,-282.01 188.59,-292.03 177.91,-301.27"/>
            <polygon fill="none" stroke="black" points="175.53,-298.69 170.19,-307.84 180.07,-304.02 175.53,-298.69"/>
        </g>
        <!-- Signal&#45;&gt;SignalSource -->
        <g id="edge19" class="edge">
            <title>Signal&#45;&gt;SignalSource</title>
            <path fill="none" stroke="black" d="M317.58,-190.73C354.02,-212.7 410.83,-253.94 433,-308 445.14,-337.61 440.01,-348.78 433,-380 430.79,-389.84 426.61,-399.99 422.24,-408.85"/>
            <polygon fill="none" stroke="black" points="419.05,-407.4 417.51,-417.88 425.25,-410.65 419.05,-407.4"/>
        </g>
        <!-- Signal&#45;&gt;Observable -->
        <g id="edge21" class="edge">
            <title>Signal&#45;&gt;Observable</title>
            <path fill="none" stroke="black" d="M252.45,-193.94C249.26,-195.99 246.07,-198.04 243,-200 227.5,-209.93 210.36,-220.88 195.7,-230.24"/>
            <polygon fill="none" stroke="black" points="193.47,-227.51 186.93,-235.83 197.24,-233.41 193.47,-227.51"/>
        </g>
        <!-- WritableSignal -->
        <g id="node15" class="node">
            <title>WritableSignal</title>
            <polygon fill="#b7c9e3" stroke="black" points="226,-108 126,-108 126,-72 226,-72 226,-108"/>
            <text text-anchor="start" x="133.62" y="-86.4" font-family="Times,serif" font-weight="bold" font-size="14.00">WritableSignal</text>
        </g>
        <!-- WritableSignal&#45;&gt;WritableObservable -->
        <g id="edge23" class="edge">
            <title>WritableSignal&#45;&gt;WritableObservable</title>
            <path fill="none" stroke="black" d="M174.7,-108.36C173.92,-118.7 172.92,-132.06 172.04,-143.78"/>
            <polygon fill="none" stroke="black" points="168.54,-143.72 171.28,-153.95 175.52,-144.24 168.54,-143.72"/>
        </g>
        <!-- WritableSignal&#45;&gt;Signal -->
        <g id="edge22" class="edge">
            <title>WritableSignal&#45;&gt;Signal</title>
            <path fill="none" stroke="black" d="M199.38,-108.16C212.37,-117.69 228.89,-129.82 243.96,-140.88"/>
            <polygon fill="none" stroke="black" points="242.01,-143.79 252.15,-146.89 246.15,-138.15 242.01,-143.79"/>
        </g>
        <!-- StrictSignal -->
        <g id="node16" class="node">
            <title>StrictSignal</title>
            <polygon fill="#b7c9e3" stroke="black" points="326,-108 244,-108 244,-72 326,-72 326,-108"/>
            <text text-anchor="start" x="251.95" y="-86.4" font-family="Times,serif" font-weight="bold" font-size="14.00">StrictSignal</text>
        </g>
        <!-- StrictSignal&#45;&gt;Signal -->
        <g id="edge24" class="edge">
            <title>StrictSignal&#45;&gt;Signal</title>
            <path fill="none" stroke="black" d="M285,-108.36C285,-115.82 285,-124.86 285,-133.71"/>
            <polygon fill="none" stroke="black" points="281.5,-133.92 285,-143.92 288.5,-133.92 281.5,-133.92"/>
        </g>
        <!-- Val -->
        <g id="node17" class="node">
            <title>Val</title>
            <polygon fill="#b7c9e3" stroke="black" points="257,-36 203,-36 203,0 257,0 257,-36"/>
            <text text-anchor="start" x="219.89" y="-14.4" font-family="Times,serif" font-weight="bold" font-size="14.00">Val</text>
        </g>
        <!-- Val&#45;&gt;WritableSignal -->
        <g id="edge26" class="edge">
            <title>Val&#45;&gt;WritableSignal</title>
            <path fill="none" stroke="black" d="M216.65,-36.3C210.24,-44.61 202.44,-54.72 195.39,-63.86"/>
            <polygon fill="none" stroke="black" points="192.53,-61.84 189.19,-71.9 198.07,-66.12 192.53,-61.84"/>
        </g>
        <!-- Val&#45;&gt;StrictSignal -->
        <g id="edge25" class="edge">
            <title>Val&#45;&gt;StrictSignal</title>
            <path fill="none" stroke="black" d="M243.6,-36.3C250.12,-44.61 258.07,-54.72 265.25,-63.86"/>
            <polygon fill="none" stroke="black" points="262.63,-66.19 271.56,-71.9 268.13,-61.87 262.63,-66.19"/>
        </g>
    </g>
</svg>
