<?xml version="1.0" encoding="UTF-8" standalone="no"?><svg xmlns="http://www.w3.org/2000/svg" xmlns:xlink="http://www.w3.org/1999/xlink" contentStyleType="text/css" height="710px" preserveAspectRatio="none" style="width:652px;height:710px;background:#FFFFFF;" version="1.1" viewBox="0 0 652 710" width="652px" zoomAndPan="magnify"><defs/><g><!--MD5=[dbdbb6ce6ecb3babc8879faa4f84544c]
class BaseObservable--><g id="elem_BaseObservable"><rect fill="#F1F1F1" height="48" id="BaseObservable" rx="2.5" ry="2.5" style="stroke:#181818;stroke-width:0.5;" width="140" x="115.5" y="439"/><ellipse cx="130.5" cy="455" fill="#ADD1B2" rx="11" ry="11" style="stroke:#181818;stroke-width:1.0;"/><path d="M132.9731,461.1431 Q132.3921,461.4419 131.7529,461.5913 Q131.1138,461.7407 130.4082,461.7407 Q127.9014,461.7407 126.5815,460.0889 Q125.2617,458.437 125.2617,455.3159 Q125.2617,452.1865 126.5815,450.5347 Q127.9014,448.8828 130.4082,448.8828 Q131.1138,448.8828 131.7612,449.0322 Q132.4087,449.1816 132.9731,449.4805 L132.9731,452.2031 Q132.3423,451.6221 131.7488,451.3523 Q131.1553,451.0825 130.5244,451.0825 Q129.1797,451.0825 128.4949,452.1492 Q127.8101,453.2158 127.8101,455.3159 Q127.8101,457.4077 128.4949,458.4744 Q129.1797,459.541 130.5244,459.541 Q131.1553,459.541 131.7488,459.2712 Q132.3423,459.0015 132.9731,458.4204 Z " fill="#000000"/><text fill="#000000" font-family="sans-serif" font-size="14" lengthAdjust="spacing" textLength="108" x="144.5" y="460.291">BaseObservable</text><line style="stroke:#181818;stroke-width:0.5;" x1="116.5" x2="254.5" y1="471" y2="471"/><line style="stroke:#181818;stroke-width:0.5;" x1="116.5" x2="254.5" y1="479" y2="479"/></g><!--MD5=[43d3c0ba1d3b9c6f5e40c8769cc5b343]
class Source--><g id="elem_Source"><rect fill="#F1F1F1" height="48" id="Source" rx="2.5" ry="2.5" style="stroke:#181818;stroke-width:0.5;" width="79" x="175" y="655"/><ellipse cx="190" cy="671" fill="#ADD1B2" rx="11" ry="11" style="stroke:#181818;stroke-width:1.0;"/><path d="M192.4731,677.1431 Q191.8921,677.4419 191.2529,677.5913 Q190.6138,677.7407 189.9082,677.7407 Q187.4014,677.7407 186.0815,676.0889 Q184.7617,674.437 184.7617,671.3159 Q184.7617,668.1865 186.0815,666.5347 Q187.4014,664.8828 189.9082,664.8828 Q190.6138,664.8828 191.2612,665.0322 Q191.9087,665.1816 192.4731,665.4805 L192.4731,668.2031 Q191.8423,667.6221 191.2488,667.3523 Q190.6553,667.0825 190.0244,667.0825 Q188.6797,667.0825 187.9949,668.1492 Q187.3101,669.2158 187.3101,671.3159 Q187.3101,673.4077 187.9949,674.4744 Q188.6797,675.541 190.0244,675.541 Q190.6553,675.541 191.2488,675.2712 Q191.8423,675.0015 192.4731,674.4204 Z " fill="#000000"/><text fill="#000000" font-family="sans-serif" font-size="14" lengthAdjust="spacing" textLength="47" x="204" y="676.291">Source</text><line style="stroke:#181818;stroke-width:0.5;" x1="176" x2="253" y1="687" y2="687"/><line style="stroke:#181818;stroke-width:0.5;" x1="176" x2="253" y1="695" y2="695"/></g><!--MD5=[7c5c88a606935469d5f89b0b5794816c]
class Named--><g id="elem_Named"><rect fill="#F1F1F1" height="48" id="Named" rx="2.5" ry="2.5" style="stroke:#181818;stroke-width:0.5;" width="80" x="300.5" y="547"/><ellipse cx="315.5" cy="563" fill="#ADD1B2" rx="11" ry="11" style="stroke:#181818;stroke-width:1.0;"/><path d="M317.9731,569.1431 Q317.3921,569.4419 316.7529,569.5913 Q316.1138,569.7407 315.4082,569.7407 Q312.9014,569.7407 311.5815,568.0889 Q310.2617,566.437 310.2617,563.3159 Q310.2617,560.1865 311.5815,558.5347 Q312.9014,556.8828 315.4082,556.8828 Q316.1138,556.8828 316.7612,557.0322 Q317.4087,557.1816 317.9731,557.4805 L317.9731,560.2031 Q317.3423,559.6221 316.7488,559.3523 Q316.1553,559.0825 315.5244,559.0825 Q314.1797,559.0825 313.4949,560.1492 Q312.8101,561.2158 312.8101,563.3159 Q312.8101,565.4077 313.4949,566.4744 Q314.1797,567.541 315.5244,567.541 Q316.1553,567.541 316.7488,567.2712 Q317.3423,567.0015 317.9731,566.4204 Z " fill="#000000"/><text fill="#000000" font-family="sans-serif" font-size="14" lengthAdjust="spacing" textLength="48" x="329.5" y="568.291">Named</text><line style="stroke:#181818;stroke-width:0.5;" x1="301.5" x2="379.5" y1="579" y2="579"/><line style="stroke:#181818;stroke-width:0.5;" x1="301.5" x2="379.5" y1="587" y2="587"/></g><!--MD5=[6cf3d8591323c7dcc68cab28b77f738d]
class EventSource--><g id="elem_EventSource"><rect fill="#F1F1F1" height="48" id="EventSource" rx="2.5" ry="2.5" style="stroke:#181818;stroke-width:0.5;" width="116" x="45.5" y="547"/><ellipse cx="60.5" cy="563" fill="#ADD1B2" rx="11" ry="11" style="stroke:#181818;stroke-width:1.0;"/><path d="M62.9731,569.1431 Q62.3921,569.4419 61.7529,569.5913 Q61.1138,569.7407 60.4082,569.7407 Q57.9014,569.7407 56.5815,568.0889 Q55.2617,566.437 55.2617,563.3159 Q55.2617,560.1865 56.5815,558.5347 Q57.9014,556.8828 60.4082,556.8828 Q61.1138,556.8828 61.7612,557.0322 Q62.4087,557.1816 62.9731,557.4805 L62.9731,560.2031 Q62.3423,559.6221 61.7488,559.3523 Q61.1553,559.0825 60.5244,559.0825 Q59.1797,559.0825 58.4949,560.1492 Q57.8101,561.2158 57.8101,563.3159 Q57.8101,565.4077 58.4949,566.4744 Q59.1797,567.541 60.5244,567.541 Q61.1553,567.541 61.7488,567.2712 Q62.3423,567.0015 62.9731,566.4204 Z " fill="#000000"/><text fill="#000000" font-family="sans-serif" font-size="14" lengthAdjust="spacing" textLength="84" x="74.5" y="568.291">EventSource</text><line style="stroke:#181818;stroke-width:0.5;" x1="46.5" x2="160.5" y1="579" y2="579"/><line style="stroke:#181818;stroke-width:0.5;" x1="46.5" x2="160.5" y1="587" y2="587"/></g><!--MD5=[0fb1c91794054276d5ac2032bb76ece5]
class SignalSource--><g id="elem_SignalSource"><rect fill="#F1F1F1" height="48" id="SignalSource" rx="2.5" ry="2.5" style="stroke:#181818;stroke-width:0.5;" width="121" x="524" y="547"/><ellipse cx="539" cy="563" fill="#ADD1B2" rx="11" ry="11" style="stroke:#181818;stroke-width:1.0;"/><path d="M541.4731,569.1431 Q540.8921,569.4419 540.2529,569.5913 Q539.6138,569.7407 538.9082,569.7407 Q536.4014,569.7407 535.0815,568.0889 Q533.7617,566.437 533.7617,563.3159 Q533.7617,560.1865 535.0815,558.5347 Q536.4014,556.8828 538.9082,556.8828 Q539.6138,556.8828 540.2612,557.0322 Q540.9087,557.1816 541.4731,557.4805 L541.4731,560.2031 Q540.8423,559.6221 540.2488,559.3523 Q539.6553,559.0825 539.0244,559.0825 Q537.6797,559.0825 536.9949,560.1492 Q536.3101,561.2158 536.3101,563.3159 Q536.3101,565.4077 536.9949,566.4744 Q537.6797,567.541 539.0244,567.541 Q539.6553,567.541 540.2488,567.2712 Q540.8423,567.0015 541.4731,566.4204 Z " fill="#000000"/><text fill="#000000" font-family="sans-serif" font-size="14" lengthAdjust="spacing" textLength="89" x="553" y="568.291">SignalSource</text><line style="stroke:#181818;stroke-width:0.5;" x1="525" x2="644" y1="579" y2="579"/><line style="stroke:#181818;stroke-width:0.5;" x1="525" x2="644" y1="587" y2="587"/></g><!--MD5=[d40932010816485ec57b44b6eea2392a]
class Observer--><g id="elem_Observer"><rect fill="#F1F1F1" height="48" id="Observer" rx="2.5" ry="2.5" style="stroke:#181818;stroke-width:0.5;" width="94" x="419.5" y="439"/><ellipse cx="434.5" cy="455" fill="#ADD1B2" rx="11" ry="11" style="stroke:#181818;stroke-width:1.0;"/><path d="M436.9731,461.1431 Q436.3921,461.4419 435.7529,461.5913 Q435.1138,461.7407 434.4082,461.7407 Q431.9014,461.7407 430.5815,460.0889 Q429.2617,458.437 429.2617,455.3159 Q429.2617,452.1865 430.5815,450.5347 Q431.9014,448.8828 434.4082,448.8828 Q435.1138,448.8828 435.7612,449.0322 Q436.4087,449.1816 436.9731,449.4805 L436.9731,452.2031 Q436.3423,451.6221 435.7488,451.3523 Q435.1553,451.0825 434.5244,451.0825 Q433.1797,451.0825 432.4949,452.1492 Q431.8101,453.2158 431.8101,455.3159 Q431.8101,457.4077 432.4949,458.4744 Q433.1797,459.541 434.5244,459.541 Q435.1553,459.541 435.7488,459.2712 Q436.3423,459.0015 436.9731,458.4204 Z " fill="#000000"/><text fill="#000000" font-family="sans-serif" font-size="14" lengthAdjust="spacing" textLength="62" x="448.5" y="460.291">Observer</text><line style="stroke:#181818;stroke-width:0.5;" x1="420.5" x2="512.5" y1="471" y2="471"/><line style="stroke:#181818;stroke-width:0.5;" x1="420.5" x2="512.5" y1="479" y2="479"/></g><!--MD5=[bb0076f36699579ceee0ebce73764b72]
class Sink--><g id="elem_Sink"><rect fill="#F1F1F1" height="48" id="Sink" rx="2.5" ry="2.5" style="stroke:#181818;stroke-width:0.5;" width="61" x="428" y="547"/><ellipse cx="443" cy="563" fill="#ADD1B2" rx="11" ry="11" style="stroke:#181818;stroke-width:1.0;"/><path d="M445.4731,569.1431 Q444.8921,569.4419 444.2529,569.5913 Q443.6138,569.7407 442.9082,569.7407 Q440.4014,569.7407 439.0815,568.0889 Q437.7617,566.437 437.7617,563.3159 Q437.7617,560.1865 439.0815,558.5347 Q440.4014,556.8828 442.9082,556.8828 Q443.6138,556.8828 444.2612,557.0322 Q444.9087,557.1816 445.4731,557.4805 L445.4731,560.2031 Q444.8423,559.6221 444.2488,559.3523 Q443.6553,559.0825 443.0244,559.0825 Q441.6797,559.0825 440.9949,560.1492 Q440.3101,561.2158 440.3101,563.3159 Q440.3101,565.4077 440.9949,566.4744 Q441.6797,567.541 443.0244,567.541 Q443.6553,567.541 444.2488,567.2712 Q444.8423,567.0015 445.4731,566.4204 Z " fill="#000000"/><text fill="#000000" font-family="sans-serif" font-size="14" lengthAdjust="spacing" textLength="29" x="457" y="568.291">Sink</text><line style="stroke:#181818;stroke-width:0.5;" x1="429" x2="488" y1="579" y2="579"/><line style="stroke:#181818;stroke-width:0.5;" x1="429" x2="488" y1="587" y2="587"/></g><!--MD5=[c0bd9f44073f1a51428d87d6a9cf071b]
class Observable--><g id="elem_Observable"><rect fill="#F1F1F1" height="48" id="Observable" rx="2.5" ry="2.5" style="stroke:#181818;stroke-width:0.5;" width="109" x="187" y="331"/><ellipse cx="202" cy="347" fill="#ADD1B2" rx="11" ry="11" style="stroke:#181818;stroke-width:1.0;"/><path d="M204.4731,353.1431 Q203.8921,353.4419 203.2529,353.5913 Q202.6138,353.7407 201.9082,353.7407 Q199.4014,353.7407 198.0815,352.0889 Q196.7617,350.437 196.7617,347.3159 Q196.7617,344.1865 198.0815,342.5347 Q199.4014,340.8828 201.9082,340.8828 Q202.6138,340.8828 203.2612,341.0322 Q203.9087,341.1816 204.4731,341.4805 L204.4731,344.2031 Q203.8423,343.6221 203.2488,343.3523 Q202.6553,343.0825 202.0244,343.0825 Q200.6797,343.0825 199.9949,344.1492 Q199.3101,345.2158 199.3101,347.3159 Q199.3101,349.4077 199.9949,350.4744 Q200.6797,351.541 202.0244,351.541 Q202.6553,351.541 203.2488,351.2712 Q203.8423,351.0015 204.4731,350.4204 Z " fill="#000000"/><text fill="#000000" font-family="sans-serif" font-size="14" lengthAdjust="spacing" textLength="77" x="216" y="352.291">Observable</text><line style="stroke:#181818;stroke-width:0.5;" x1="188" x2="295" y1="363" y2="363"/><line style="stroke:#181818;stroke-width:0.5;" x1="188" x2="295" y1="371" y2="371"/></g><!--MD5=[c35f79b668e19d1c0bb8c2fa20d25922]
class EventBus--><g id="elem_EventBus"><rect fill="#F1F1F1" height="48" id="EventBus" rx="2.5" ry="2.5" style="stroke:#181818;stroke-width:0.5;" width="93" x="291" y="439"/><ellipse cx="306" cy="455" fill="#ADD1B2" rx="11" ry="11" style="stroke:#181818;stroke-width:1.0;"/><path d="M308.4731,461.1431 Q307.8921,461.4419 307.2529,461.5913 Q306.6138,461.7407 305.9082,461.7407 Q303.4014,461.7407 302.0815,460.0889 Q300.7617,458.437 300.7617,455.3159 Q300.7617,452.1865 302.0815,450.5347 Q303.4014,448.8828 305.9082,448.8828 Q306.6138,448.8828 307.2612,449.0322 Q307.9087,449.1816 308.4731,449.4805 L308.4731,452.2031 Q307.8423,451.6221 307.2488,451.3523 Q306.6553,451.0825 306.0244,451.0825 Q304.6797,451.0825 303.9949,452.1492 Q303.3101,453.2158 303.3101,455.3159 Q303.3101,457.4077 303.9949,458.4744 Q304.6797,459.541 306.0244,459.541 Q306.6553,459.541 307.2488,459.2712 Q307.8423,459.0015 308.4731,458.4204 Z " fill="#000000"/><text fill="#000000" font-family="sans-serif" font-size="14" lengthAdjust="spacing" textLength="61" x="320" y="460.291">EventBus</text><line style="stroke:#181818;stroke-width:0.5;" x1="292" x2="383" y1="471" y2="471"/><line style="stroke:#181818;stroke-width:0.5;" x1="292" x2="383" y1="479" y2="479"/></g><!--MD5=[731225e2007e13f9ac67fff186258580]
class Var--><g id="elem_Var"><rect fill="#F1F1F1" height="48" id="Var" rx="2.5" ry="2.5" style="stroke:#181818;stroke-width:0.5;" width="55" x="549" y="439"/><ellipse cx="564" cy="455" fill="#ADD1B2" rx="11" ry="11" style="stroke:#181818;stroke-width:1.0;"/><path d="M566.4731,461.1431 Q565.8921,461.4419 565.2529,461.5913 Q564.6138,461.7407 563.9082,461.7407 Q561.4014,461.7407 560.0815,460.0889 Q558.7617,458.437 558.7617,455.3159 Q558.7617,452.1865 560.0815,450.5347 Q561.4014,448.8828 563.9082,448.8828 Q564.6138,448.8828 565.2612,449.0322 Q565.9087,449.1816 566.4731,449.4805 L566.4731,452.2031 Q565.8423,451.6221 565.2488,451.3523 Q564.6553,451.0825 564.0244,451.0825 Q562.6797,451.0825 561.9949,452.1492 Q561.3101,453.2158 561.3101,455.3159 Q561.3101,457.4077 561.9949,458.4744 Q562.6797,459.541 564.0244,459.541 Q564.6553,459.541 565.2488,459.2712 Q565.8423,459.0015 566.4731,458.4204 Z " fill="#000000"/><text fill="#000000" font-family="sans-serif" font-size="14" lengthAdjust="spacing" textLength="23" x="578" y="460.291">Var</text><line style="stroke:#181818;stroke-width:0.5;" x1="550" x2="603" y1="471" y2="471"/><line style="stroke:#181818;stroke-width:0.5;" x1="550" x2="603" y1="479" y2="479"/></g><!--MD5=[a62af4ef4082f4b372f0d8265a8e9578]
class WriteBus--><g id="elem_WriteBus"><rect fill="#F1F1F1" height="48" id="WriteBus" rx="2.5" ry="2.5" style="stroke:#181818;stroke-width:0.5;" width="91" x="421" y="331"/><ellipse cx="436" cy="347" fill="#ADD1B2" rx="11" ry="11" style="stroke:#181818;stroke-width:1.0;"/><path d="M438.4731,353.1431 Q437.8921,353.4419 437.2529,353.5913 Q436.6138,353.7407 435.9082,353.7407 Q433.4014,353.7407 432.0815,352.0889 Q430.7617,350.437 430.7617,347.3159 Q430.7617,344.1865 432.0815,342.5347 Q433.4014,340.8828 435.9082,340.8828 Q436.6138,340.8828 437.2612,341.0322 Q437.9087,341.1816 438.4731,341.4805 L438.4731,344.2031 Q437.8423,343.6221 437.2488,343.3523 Q436.6553,343.0825 436.0244,343.0825 Q434.6797,343.0825 433.9949,344.1492 Q433.3101,345.2158 433.3101,347.3159 Q433.3101,349.4077 433.9949,350.4744 Q434.6797,351.541 436.0244,351.541 Q436.6553,351.541 437.2488,351.2712 Q437.8423,351.0015 438.4731,350.4204 Z " fill="#000000"/><text fill="#000000" font-family="sans-serif" font-size="14" lengthAdjust="spacing" textLength="59" x="450" y="352.291">WriteBus</text><line style="stroke:#181818;stroke-width:0.5;" x1="422" x2="511" y1="363" y2="363"/><line style="stroke:#181818;stroke-width:0.5;" x1="422" x2="511" y1="371" y2="371"/></g><!--MD5=[37ce66f30b506d075c7da6251450c5ae]
class WritableObservable--><g id="elem_WritableObservable"><rect fill="#F1F1F1" height="48" id="WritableObservable" rx="2.5" ry="2.5" style="stroke:#181818;stroke-width:0.5;" width="165" x="159" y="223"/><ellipse cx="174" cy="239" fill="#ADD1B2" rx="11" ry="11" style="stroke:#181818;stroke-width:1.0;"/><path d="M176.4731,245.1431 Q175.8921,245.4419 175.2529,245.5913 Q174.6138,245.7407 173.9082,245.7407 Q171.4014,245.7407 170.0815,244.0889 Q168.7617,242.437 168.7617,239.3159 Q168.7617,236.1865 170.0815,234.5347 Q171.4014,232.8828 173.9082,232.8828 Q174.6138,232.8828 175.2612,233.0322 Q175.9087,233.1816 176.4731,233.4805 L176.4731,236.2031 Q175.8423,235.6221 175.2488,235.3523 Q174.6553,235.0825 174.0244,235.0825 Q172.6797,235.0825 171.9949,236.1492 Q171.3101,237.2158 171.3101,239.3159 Q171.3101,241.4077 171.9949,242.4744 Q172.6797,243.541 174.0244,243.541 Q174.6553,243.541 175.2488,243.2712 Q175.8423,243.0015 176.4731,242.4204 Z " fill="#000000"/><text fill="#000000" font-family="sans-serif" font-size="14" lengthAdjust="spacing" textLength="133" x="188" y="244.291">WritableObservable</text><line style="stroke:#181818;stroke-width:0.5;" x1="160" x2="323" y1="255" y2="255"/><line style="stroke:#181818;stroke-width:0.5;" x1="160" x2="323" y1="263" y2="263"/></g><!--MD5=[be487b3bb751466a4a7bf5087ababc69]
class EventStream--><g id="elem_EventStream"><rect fill="#F1F1F1" height="48" id="EventStream" rx="2.5" ry="2.5" style="stroke:#181818;stroke-width:0.5;" width="117" x="7" y="223"/><ellipse cx="22" cy="239" fill="#ADD1B2" rx="11" ry="11" style="stroke:#181818;stroke-width:1.0;"/><path d="M24.4731,245.1431 Q23.8921,245.4419 23.2529,245.5913 Q22.6138,245.7407 21.9082,245.7407 Q19.4014,245.7407 18.0815,244.0889 Q16.7617,242.437 16.7617,239.3159 Q16.7617,236.1865 18.0815,234.5347 Q19.4014,232.8828 21.9082,232.8828 Q22.6138,232.8828 23.2612,233.0322 Q23.9087,233.1816 24.4731,233.4805 L24.4731,236.2031 Q23.8423,235.6221 23.2488,235.3523 Q22.6553,235.0825 22.0244,235.0825 Q20.6797,235.0825 19.9949,236.1492 Q19.3101,237.2158 19.3101,239.3159 Q19.3101,241.4077 19.9949,242.4744 Q20.6797,243.541 22.0244,243.541 Q22.6553,243.541 23.2488,243.2712 Q23.8423,243.0015 24.4731,242.4204 Z " fill="#000000"/><text fill="#000000" font-family="sans-serif" font-size="14" lengthAdjust="spacing" textLength="85" x="36" y="244.291">EventStream</text><line style="stroke:#181818;stroke-width:0.5;" x1="8" x2="123" y1="255" y2="255"/><line style="stroke:#181818;stroke-width:0.5;" x1="8" x2="123" y1="263" y2="263"/></g><!--MD5=[0e770a5826b894b8746f65a5ff995c24]
class Signal--><g id="elem_Signal"><rect fill="#F1F1F1" height="48" id="Signal" rx="2.5" ry="2.5" style="stroke:#181818;stroke-width:0.5;" width="74" x="359.5" y="223"/><ellipse cx="374.5" cy="239" fill="#ADD1B2" rx="11" ry="11" style="stroke:#181818;stroke-width:1.0;"/><path d="M376.9731,245.1431 Q376.3921,245.4419 375.7529,245.5913 Q375.1138,245.7407 374.4082,245.7407 Q371.9014,245.7407 370.5815,244.0889 Q369.2617,242.437 369.2617,239.3159 Q369.2617,236.1865 370.5815,234.5347 Q371.9014,232.8828 374.4082,232.8828 Q375.1138,232.8828 375.7612,233.0322 Q376.4087,233.1816 376.9731,233.4805 L376.9731,236.2031 Q376.3423,235.6221 375.7488,235.3523 Q375.1553,235.0825 374.5244,235.0825 Q373.1797,235.0825 372.4949,236.1492 Q371.8101,237.2158 371.8101,239.3159 Q371.8101,241.4077 372.4949,242.4744 Q373.1797,243.541 374.5244,243.541 Q375.1553,243.541 375.7488,243.2712 Q376.3423,243.0015 376.9731,242.4204 Z " fill="#000000"/><text fill="#000000" font-family="sans-serif" font-size="14" lengthAdjust="spacing" textLength="42" x="388.5" y="244.291">Signal</text><line style="stroke:#181818;stroke-width:0.5;" x1="360.5" x2="432.5" y1="255" y2="255"/><line style="stroke:#181818;stroke-width:0.5;" x1="360.5" x2="432.5" y1="263" y2="263"/></g><!--MD5=[2fc84194897eac36bc073c4241e40cd5]
class WritableSignal--><g id="elem_WritableSignal"><rect fill="#F1F1F1" height="48" id="WritableSignal" rx="2.5" ry="2.5" style="stroke:#181818;stroke-width:0.5;" width="130" x="176.5" y="115"/><ellipse cx="191.5" cy="131" fill="#ADD1B2" rx="11" ry="11" style="stroke:#181818;stroke-width:1.0;"/><path d="M193.9731,137.1431 Q193.3921,137.4419 192.7529,137.5913 Q192.1138,137.7407 191.4082,137.7407 Q188.9014,137.7407 187.5815,136.0889 Q186.2617,134.437 186.2617,131.3159 Q186.2617,128.1865 187.5815,126.5347 Q188.9014,124.8828 191.4082,124.8828 Q192.1138,124.8828 192.7612,125.0322 Q193.4087,125.1816 193.9731,125.4805 L193.9731,128.2031 Q193.3423,127.6221 192.7488,127.3523 Q192.1553,127.0825 191.5244,127.0825 Q190.1797,127.0825 189.4949,128.1492 Q188.8101,129.2158 188.8101,131.3159 Q188.8101,133.4077 189.4949,134.4744 Q190.1797,135.541 191.5244,135.541 Q192.1553,135.541 192.7488,135.2712 Q193.3423,135.0015 193.9731,134.4204 Z " fill="#000000"/><text fill="#000000" font-family="sans-serif" font-size="14" lengthAdjust="spacing" textLength="98" x="205.5" y="136.291">WritableSignal</text><line style="stroke:#181818;stroke-width:0.5;" x1="177.5" x2="305.5" y1="147" y2="147"/><line style="stroke:#181818;stroke-width:0.5;" x1="177.5" x2="305.5" y1="155" y2="155"/></g><!--MD5=[75d7a518e376e7f2a04c6b30865a7644]
class StrictSignal--><g id="elem_StrictSignal"><rect fill="#F1F1F1" height="48" id="StrictSignal" rx="2.5" ry="2.5" style="stroke:#181818;stroke-width:0.5;" width="109" x="342" y="115"/><ellipse cx="357" cy="131" fill="#ADD1B2" rx="11" ry="11" style="stroke:#181818;stroke-width:1.0;"/><path d="M359.4731,137.1431 Q358.8921,137.4419 358.2529,137.5913 Q357.6138,137.7407 356.9082,137.7407 Q354.4014,137.7407 353.0815,136.0889 Q351.7617,134.437 351.7617,131.3159 Q351.7617,128.1865 353.0815,126.5347 Q354.4014,124.8828 356.9082,124.8828 Q357.6138,124.8828 358.2612,125.0322 Q358.9087,125.1816 359.4731,125.4805 L359.4731,128.2031 Q358.8423,127.6221 358.2488,127.3523 Q357.6553,127.0825 357.0244,127.0825 Q355.6797,127.0825 354.9949,128.1492 Q354.3101,129.2158 354.3101,131.3159 Q354.3101,133.4077 354.9949,134.4744 Q355.6797,135.541 357.0244,135.541 Q357.6553,135.541 358.2488,135.2712 Q358.8423,135.0015 359.4731,134.4204 Z " fill="#000000"/><text fill="#000000" font-family="sans-serif" font-size="14" lengthAdjust="spacing" textLength="77" x="371" y="136.291">StrictSignal</text><line style="stroke:#181818;stroke-width:0.5;" x1="343" x2="450" y1="147" y2="147"/><line style="stroke:#181818;stroke-width:0.5;" x1="343" x2="450" y1="155" y2="155"/></g><!--MD5=[43fbf57120ad8775fec71a13d670d035]
class Val--><g id="elem_Val"><rect fill="#F1F1F1" height="48" id="Val" rx="2.5" ry="2.5" style="stroke:#181818;stroke-width:0.5;" width="53" x="292" y="7"/><ellipse cx="307" cy="23" fill="#ADD1B2" rx="11" ry="11" style="stroke:#181818;stroke-width:1.0;"/><path d="M309.4731,29.1431 Q308.8921,29.4419 308.2529,29.5913 Q307.6138,29.7407 306.9082,29.7407 Q304.4014,29.7407 303.0815,28.0889 Q301.7617,26.437 301.7617,23.3159 Q301.7617,20.1865 303.0815,18.5347 Q304.4014,16.8828 306.9082,16.8828 Q307.6138,16.8828 308.2612,17.0322 Q308.9087,17.1816 309.4731,17.4805 L309.4731,20.2031 Q308.8423,19.6221 308.2488,19.3523 Q307.6553,19.0825 307.0244,19.0825 Q305.6797,19.0825 304.9949,20.1492 Q304.3101,21.2158 304.3101,23.3159 Q304.3101,25.4077 304.9949,26.4744 Q305.6797,27.541 307.0244,27.541 Q307.6553,27.541 308.2488,27.2712 Q308.8423,27.0015 309.4731,26.4204 Z " fill="#000000"/><text fill="#000000" font-family="sans-serif" font-size="14" lengthAdjust="spacing" textLength="21" x="321" y="28.291">Val</text><line style="stroke:#181818;stroke-width:0.5;" x1="293" x2="344" y1="39" y2="39"/><line style="stroke:#181818;stroke-width:0.5;" x1="293" x2="344" y1="47" y2="47"/></g><!--MD5=[e323b385a8ebfd92583ed28a82613ece]
reverse link BaseObservable to Source--><g id="link_BaseObservable_Source"><path codeLine="1" d="M191.37,507.34 C197.4,551.85 206.56,619.44 211.35,654.72 " fill="none" id="BaseObservable-backto-Source" style="stroke:#181818;stroke-width:1.0;"/><polygon fill="none" points="184.41,508.07,188.66,487.31,198.28,506.19,184.41,508.07" style="stroke:#181818;stroke-width:1.0;"/></g><!--MD5=[a7356e4161ae413eb600d93aa42ca851]
reverse link BaseObservable to Named--><g id="link_BaseObservable_Named"><path codeLine="2" d="M235.97,498.51 C259.13,514.35 285.98,532.71 306.67,546.86 " fill="none" id="BaseObservable-backto-Named" style="stroke:#181818;stroke-width:1.0;"/><polygon fill="none" points="231.69,504.07,219.13,487,239.59,492.51,231.69,504.07" style="stroke:#181818;stroke-width:1.0;"/></g><!--MD5=[862bd2a4871d4fbb09b97773c3830e6d]
reverse link EventSource to Source--><g id="link_EventSource_Source"><path codeLine="3" d="M142.54,609.28 C158.36,624.39 176.15,641.38 190.08,654.68 " fill="none" id="EventSource-backto-Source" style="stroke:#181818;stroke-width:1.0;"/><polygon fill="none" points="137.22,613.88,127.59,595,146.88,603.75,137.22,613.88" style="stroke:#181818;stroke-width:1.0;"/></g><!--MD5=[a259cfe00bf492ce84c2d01780ac0643]
reverse link SignalSource to Source--><g id="link_SignalSource_Source"><path codeLine="4" d="M504.17,595.64 C403.74,624.66 307.02,651.98 254.21,666.85 " fill="none" id="SignalSource-backto-Source" style="stroke:#181818;stroke-width:1.0;"/><polygon fill="none" points="502.47,588.85,523.63,590.01,506.36,602.3,502.47,588.85" style="stroke:#181818;stroke-width:1.0;"/></g><!--MD5=[2ea1ee6cef0d4b1fc0bd699900fce62f]
reverse link Observer to Named--><g id="link_Observer_Named"><path codeLine="5" d="M423.58,500.1 C405.28,515.5 384.45,533.03 368.22,546.68 " fill="none" id="Observer-backto-Named" style="stroke:#181818;stroke-width:1.0;"/><polygon fill="none" points="419.35,494.52,439.16,487,428.36,505.23,419.35,494.52" style="stroke:#181818;stroke-width:1.0;"/></g><!--MD5=[6a656d50b2ec0617ae6207ebadbae523]
reverse link Observer to Sink--><g id="link_Observer_Sink"><path codeLine="6" d="M463.25,507.02 C462.23,520.58 461.14,535.04 460.26,546.68 " fill="none" id="Observer-backto-Sink" style="stroke:#181818;stroke-width:1.0;"/><polygon fill="none" points="456.28,506.42,464.76,487,470.24,507.47,456.28,506.42" style="stroke:#181818;stroke-width:1.0;"/></g><!--MD5=[17501aeeeb329e5f0d24b17e400580eb]
reverse link Observable to BaseObservable--><g id="link_Observable_BaseObservable"><path codeLine="7" d="M219.79,397.09 C212.34,411.2 204.26,426.48 197.82,438.68 " fill="none" id="Observable-backto-BaseObservable" style="stroke:#181818;stroke-width:1.0;"/><polygon fill="none" points="213.82,393.41,229.35,379,226.2,399.95,213.82,393.41" style="stroke:#181818;stroke-width:1.0;"/></g><!--MD5=[7c9b932ed184eb6b5fdb2a5393d576a5]
reverse link EventBus to EventSource--><g id="link_EventBus_EventSource"><path codeLine="8" d="M272.66,493.37 C235.32,510.28 189.08,531.23 154.39,546.95 " fill="none" id="EventBus-backto-EventSource" style="stroke:#181818;stroke-width:1.0;"/><polygon fill="none" points="269.88,486.95,290.99,485.07,275.66,499.7,269.88,486.95" style="stroke:#181818;stroke-width:1.0;"/></g><!--MD5=[82e55926fc66b085d76476c295659649]
reverse link EventBus to Named--><g id="link_EventBus_Named"><path codeLine="9" d="M338.72,507.02 C339.1,520.58 339.51,535.04 339.84,546.68 " fill="none" id="EventBus-backto-Named" style="stroke:#181818;stroke-width:1.0;"/><polygon fill="none" points="331.72,507.19,338.15,487,345.71,506.79,331.72,507.19" style="stroke:#181818;stroke-width:1.0;"/></g><!--MD5=[42263fb836773046d1a8a9dc15f3bb26]
reverse link EventBus to Sink--><g id="link_EventBus_Sink"><path codeLine="10" d="M378.98,500.34 C396.49,515.68 416.38,533.1 431.88,546.68 " fill="none" id="EventBus-backto-Sink" style="stroke:#181818;stroke-width:1.0;"/><polygon fill="none" points="374.19,505.44,363.76,487,383.41,494.91,374.19,505.44" style="stroke:#181818;stroke-width:1.0;"/></g><!--MD5=[dd6b8dd1185418881e06322d2ceb141a]
reverse link Var to SignalSource--><g id="link_Var_SignalSource"><path codeLine="11" d="M579.75,507.02 C580.77,520.58 581.86,535.04 582.74,546.68 " fill="none" id="Var-backto-SignalSource" style="stroke:#181818;stroke-width:1.0;"/><polygon fill="none" points="572.76,507.47,578.24,487,586.72,506.42,572.76,507.47" style="stroke:#181818;stroke-width:1.0;"/></g><!--MD5=[f446fc66ece8f249e8d04783928023bd]
reverse link Var to Named--><g id="link_Var_Named"><path codeLine="12" d="M530.28,487.27 C469.32,515.88 416.09,538.59 380.7,553.39 " fill="none" id="Var-backto-Named" style="stroke:#181818;stroke-width:1.0;"/><polygon fill="none" points="527.48,480.85,548.55,478.63,533.46,493.51,527.48,480.85" style="stroke:#181818;stroke-width:1.0;"/></g><!--MD5=[3872f37f93dd429c313ce1fa009f232c]
reverse link Var to Sink--><g id="link_Var_Sink"><path codeLine="13" d="M535.79,500.57 C518.77,515.86 499.5,533.17 484.46,546.68 " fill="none" id="Var-backto-Sink" style="stroke:#181818;stroke-width:1.0;"/><polygon fill="none" points="531.34,495.16,550.9,487,540.7,505.57,531.34,495.16" style="stroke:#181818;stroke-width:1.0;"/></g><!--MD5=[42a76ded2ce8f3ceb2c840fdfbe90105]
reverse link WriteBus to Observer--><g id="link_WriteBus_Observer"><path codeLine="14" d="M466.5,399.02 C466.5,412.58 466.5,427.04 466.5,438.68 " fill="none" id="WriteBus-backto-Observer" style="stroke:#181818;stroke-width:1.0;"/><polygon fill="none" points="459.5,399,466.5,379,473.5,399,459.5,399" style="stroke:#181818;stroke-width:1.0;"/></g><!--MD5=[d60b54971b246f6287bc82c15ab8de5e]
reverse link WritableObservable to Observable--><g id="link_WritableObservable_Observable"><path codeLine="15" d="M241.5,291.02 C241.5,304.58 241.5,319.04 241.5,330.68 " fill="none" id="WritableObservable-backto-Observable" style="stroke:#181818;stroke-width:1.0;"/><polygon fill="none" points="234.5,291,241.5,271,248.5,291,234.5,291" style="stroke:#181818;stroke-width:1.0;"/></g><!--MD5=[0ffc9cd4493b2b398132d4b4c58765d0]
reverse link EventStream to Observable--><g id="link_EventStream_Observable"><path codeLine="16" d="M120.88,281.35 C147.61,297.45 179.02,316.37 203.08,330.86 " fill="none" id="EventStream-backto-Observable" style="stroke:#181818;stroke-width:1.0;"/><polygon fill="none" points="117.21,287.32,103.69,271,124.43,275.32,117.21,287.32" style="stroke:#181818;stroke-width:1.0;"/></g><!--MD5=[424610f8ee4049f3e6f95fa4717afff9]
reverse link EventStream to BaseObservable--><g id="link_EventStream_BaseObservable"><path codeLine="17" d="M88.45,288.93 C113.37,333.37 152.3,402.8 172.45,438.72 " fill="none" id="EventStream-backto-BaseObservable" style="stroke:#181818;stroke-width:1.0;"/><polygon fill="none" points="82.25,292.18,78.57,271.31,94.46,285.33,82.25,292.18" style="stroke:#181818;stroke-width:1.0;"/></g><!--MD5=[e96b67b0b28647bb61218ffb4f657059]
reverse link EventStream to EventSource--><g id="link_EventStream_EventSource"><path codeLine="18" d="M70.59,291.13 C78.73,360.1 94.4,492.92 100.74,546.62 " fill="none" id="EventStream-backto-EventSource" style="stroke:#181818;stroke-width:1.0;"/><polygon fill="none" points="63.63,291.84,68.23,271.16,77.53,290.2,63.63,291.84" style="stroke:#181818;stroke-width:1.0;"/></g><!--MD5=[0954781051b0fb1fad2d017c1fb477b1]
reverse link Signal to Observable--><g id="link_Signal_Observable"><path codeLine="19" d="M346.03,282.51 C322.87,298.35 296.02,316.71 275.33,330.86 " fill="none" id="Signal-backto-Observable" style="stroke:#181818;stroke-width:1.0;"/><polygon fill="none" points="342.41,276.51,362.87,271,350.31,288.07,342.41,276.51" style="stroke:#181818;stroke-width:1.0;"/></g><!--MD5=[aa717421e2a4ad3f4584bc5113d3c941]
reverse link Signal to BaseObservable--><g id="link_Signal_BaseObservable"><path codeLine="20" d="M376.34,289.33 C361.54,316.87 339.53,352.69 313.5,379 C289.47,403.29 257.15,424.17 231.01,438.92 " fill="none" id="Signal-backto-BaseObservable" style="stroke:#181818;stroke-width:1.0;"/><polygon fill="none" points="370.2,285.96,385.59,271.4,382.64,292.39,370.2,285.96" style="stroke:#181818;stroke-width:1.0;"/></g><!--MD5=[e373b9836d6c80644ca7767e0e4f468e]
reverse link Signal to SignalSource--><g id="link_Signal_SignalSource"><path codeLine="21" d="M451.58,273.74 C508.33,303.96 592.47,360.16 621.5,439 C635.14,476.04 615.24,520.5 599.75,546.94 " fill="none" id="Signal-backto-SignalSource" style="stroke:#181818;stroke-width:1.0;"/><polygon fill="none" points="448.12,279.83,433.5,264.49,454.49,267.37,448.12,279.83" style="stroke:#181818;stroke-width:1.0;"/></g><!--MD5=[76a4ef169a235b211c898ce29b708ead]
reverse link WritableSignal to WritableObservable--><g id="link_WritableSignal_WritableObservable"><path codeLine="22" d="M241.5,183.02 C241.5,196.58 241.5,211.04 241.5,222.68 " fill="none" id="WritableSignal-backto-WritableObservable" style="stroke:#181818;stroke-width:1.0;"/><polygon fill="none" points="234.5,183,241.5,163,248.5,183,234.5,183" style="stroke:#181818;stroke-width:1.0;"/></g><!--MD5=[9fb4a1395ab3047fa44ebae23fe7ff3c]
reverse link WritableSignal to Signal--><g id="link_WritableSignal_Signal"><path codeLine="23" d="M291.97,174.51 C315.13,190.35 341.98,208.71 362.67,222.86 " fill="none" id="WritableSignal-backto-Signal" style="stroke:#181818;stroke-width:1.0;"/><polygon fill="none" points="287.69,180.07,275.13,163,295.59,168.51,287.69,180.07" style="stroke:#181818;stroke-width:1.0;"/></g><!--MD5=[cf12a5b424662e8725c7773324182c2e]
reverse link StrictSignal to Signal--><g id="link_StrictSignal_Signal"><path codeLine="24" d="M396.5,183.02 C396.5,196.58 396.5,211.04 396.5,222.68 " fill="none" id="StrictSignal-backto-Signal" style="stroke:#181818;stroke-width:1.0;"/><polygon fill="none" points="389.5,183,396.5,163,403.5,183,389.5,183" style="stroke:#181818;stroke-width:1.0;"/></g><!--MD5=[0ecab26c6e088f5ffced8a8003f6fcf2]
reverse link Val to WritableSignal--><g id="link_Val_WritableSignal"><path codeLine="25" d="M289.69,71.66 C279.16,86.15 267.6,102.07 258.44,114.68 " fill="none" id="Val-backto-WritableSignal" style="stroke:#181818;stroke-width:1.0;"/><polygon fill="none" points="284.37,67.07,301.79,55,295.7,75.3,284.37,67.07" style="stroke:#181818;stroke-width:1.0;"/></g><!--MD5=[7803456d9cf250454b6c74de44e689d5]
reverse link Val to StrictSignal--><g id="link_Val_StrictSignal"><path codeLine="26" d="M347.33,71.18 C358.09,85.8 369.96,101.93 379.34,114.68 " fill="none" id="Val-backto-StrictSignal" style="stroke:#181818;stroke-width:1.0;"/><polygon fill="none" points="341.64,75.26,335.42,55,352.92,66.96,341.64,75.26" style="stroke:#181818;stroke-width:1.0;"/></g><!--MD5=[28fd8a0b7fedf80084734a5f74574681]
@startuml
    BaseObservable <|- - Source
BaseObservable <|- - Named
EventSource <|- - Source
SignalSource <|- - Source
Observer <|- - Named
Observer <|- - Sink
Observable <|- - BaseObservable
EventBus <|- - EventSource
EventBus <|- - Named
EventBus <|- - Sink
Var <|- - SignalSource
Var <|- - Named
Var <|- - Sink
WriteBus <|- - Observer
WritableObservable <|- - Observable
EventStream <|- - Observable
EventStream <|- - BaseObservable
EventStream <|- - EventSource
Signal <|- - Observable
Signal <|- - BaseObservable
Signal <|- - SignalSource
WritableSignal <|- - WritableObservable
WritableSignal <|- - Signal
StrictSignal <|- - Signal
Val <|- - WritableSignal
Val <|- - StrictSignal
    @enduml

PlantUML version 1.2022.5(Sat Apr 30 03:55:52 PDT 2022)
(GPL source distribution)
Java Runtime: OpenJDK Runtime Environment
JVM: OpenJDK 64-Bit Server VM
Default Encoding: UTF-8
Language: en
Country: US
-->
</g></svg>